<?xml version="1.0" encoding="utf-8"?>
<!-- Generator: Adobe Illustrator 23.0.4, SVG Export Plug-In . SVG Version: 6.00 Build 0)  -->
<svg version="1.1" id="Calque_1" xmlns="http://www.w3.org/2000/svg" xmlns:xlink="http://www.w3.org/1999/xlink" x="0px" y="0px"
	 viewBox="0 0 167.29 62.67" style="enable-background:new 0 0 167.29 62.67;" xml:space="preserve">
<style type="text/css">
	.st0{fill:#06FEB5;}
	.st1{stroke:#06FEB5;stroke-width:0.9;stroke-miterlimit:10;}
	.st2{fill:#FFFFFF;}
	.st3{font-family:'Montserrat-ExtraBoldItalic';}
	.st4{font-size:22.54px;}
</style>
<title>Fichier 1</title>
<g>
	<g id="Calque_1-2">
		<polygon class="st0" points="9.63,50.22 39.09,50.22 48.72,29.32 24.36,0 0,29.32 		"/>
		<polygon class="st1" points="20.38,12.2 24.3,24.74 28.33,12.2 42.82,29.54 36.03,45.02 30.82,35.26 24.36,60.83 17.89,35.26 
			12.69,45.02 5.89,29.54 		"/>
		<text transform="matrix(1 0 0 1 51.79 50.31)" class="st2 st3 st4">MA</text>
		<text transform="matrix(1 0 0 1 91.06 50.31)" class="st2 st3 st4">S</text>
		<text transform="matrix(1 0 0 1 105.48 50.31)" class="st2 st3 st4">TERS</text>
		<text transform="matrix(1 -5.061433e-03 5.061433e-03 1 56.22 29.8)" class="st2 st3 st4">P</text>
		<text transform="matrix(1 -5.061433e-03 5.061433e-03 1 71.7498 29.7214)" class="st2 st3 st4">I</text>
		<text transform="matrix(1 -5.061433e-03 5.061433e-03 1 79.2297 29.6835)" class="st2 st3 st4">T</text>
		<text transform="matrix(1 -5.061433e-03 5.061433e-03 1 93.4995 29.6113)" class="st2 st3 st4">CH</text>
	</g>
</g>
</svg>
