<svg xmlns="http://www.w3.org/2000/svg" xmlns:xlink="http://www.w3.org/1999/xlink" viewBox="0 0 226.85 123.7"><defs><style>.cls-1,.cls-3,.cls-4{fill:none;}.cls-2{clip-path:url(#clip-path);}.cls-3,.cls-4{stroke:#1d1d1b;stroke-miterlimit:10;stroke-width:1.67px;}.cls-3{stroke-dasharray:3 3;}.cls-5{fill:#ffed00;}</style><clipPath id="clip-path"><path class="cls-1" d="M165.07,62.46A57.25,57.25,0,1,1,107.82,5.21a57.25,57.25,0,0,1,57.25,57.25"/></clipPath></defs><title>Fichier 14</title><g id="Calque_2" data-name="Calque 2"><g id="Calque_1-2" data-name="Calque 1"><g class="cls-2"><image width="6016" height="4016" transform="translate(41.54) scale(0.03)" xlink:href="../../../Google%20Drive/Professional/Dropbox/Work/PitchMyStartup/Events/PMSU-14/Album%20photo/Wework%20preview%20NH_15.jpg"/></g><path class="cls-3" d="M165.05,63.16c6.19,5.41,9.26,10.87,8.13,15.7-3.08,13.19-36.25,16.71-74.08,7.87S33.1,60,36.18,46.84c1.41-6,9.12-10,20.68-11.77l5.49-7.37-2.45.12C27.71,26.73,4.27,33.41,1.18,46.63-3.4,66.22,38.44,92.74,94.63,105.87s105.44,7.9,110-11.68c2.9-12.4-12.79-27.56-38.93-40.36l-1.51.18Z"/><path class="cls-4" d="M165.07,62.46A57.25,57.25,0,1,1,107.82,5.21,57.25,57.25,0,0,1,165.07,62.46Z"/><path class="cls-5" d="M181.76,111.26a5.24,5.24,0,1,1-5.24-5.24A5.24,5.24,0,0,1,181.76,111.26Z"/></g></g></svg>