<svg xmlns="http://www.w3.org/2000/svg" viewBox="0 0 205.83 116.16"><defs><style>.cls-1{fill:#fff;}.cls-2,.cls-3{fill:none;stroke:#1d1d1b;stroke-miterlimit:10;stroke-width:1.67px;}.cls-3{stroke-dasharray:3 3;}.cls-4{fill:#ffed00;}</style></defs><title>Fichier 12</title><g id="Calque_2" data-name="Calque 2"><g id="Calque_1-2" data-name="Calque 1"><path class="cls-1" d="M165.07,58.08A57.25,57.25,0,1,1,107.82.83a57.25,57.25,0,0,1,57.25,57.25"/><path class="cls-2" d="M165.07,58.08A57.25,57.25,0,1,1,107.82.83,57.25,57.25,0,0,1,165.07,58.08Z"/><path class="cls-3" d="M165.05,58.78c6.19,5.41,9.26,10.87,8.13,15.7C170.1,87.67,136.93,91.2,99.1,82.35s-66-26.7-62.92-39.88c1.41-6,9.12-10,20.68-11.77l5.49-7.37-2.45.12C27.71,22.35,4.27,29,1.18,42.25-3.4,61.84,38.44,88.37,94.63,101.5s105.44,7.9,110-11.69c2.9-12.39-12.79-27.56-38.93-40.36l-1.51.19Z"/><path class="cls-4" d="M181.76,106.88a5.24,5.24,0,1,1-5.24-5.24A5.25,5.25,0,0,1,181.76,106.88Z"/></g></g></svg>