<?xml version="1.0" encoding="utf-8"?>
<!-- Generator: Adobe Illustrator 23.0.4, SVG Export Plug-In . SVG Version: 6.00 Build 0)  -->
<svg version="1.1" id="Calque_1" xmlns="http://www.w3.org/2000/svg" xmlns:xlink="http://www.w3.org/1999/xlink" x="0px" y="0px"
	 viewBox="0 0 1485 1453" style="enable-background:new 0 0 1485 1453;" xml:space="preserve">
<style type="text/css">
	.st0{display:none;}
	.st1{fill:#05DD95;}
	.st2{fill:#80FFD5;}
</style>
<path class="st0" d="M4911.75-117h-561.08v-80.5h318.78c22.23,0,40.25-18.02,40.25-40.25v0c0-22.23-18.02-40.25-40.25-40.25h-431.3
	v-80.5h523.25c22.23,0,40.25-18.02,40.25-40.25v0c0-22.23-18.02-40.25-40.25-40.25h-341.32v-80.5h430.67
	c22.23,0,40.25-18.02,40.25-40.25v0c0-22.23-18.02-40.25-40.25-40.25h-561.08v-80.5h318.78c22.23,0,40.25-18.02,40.25-40.25v0
	c0-22.23-18.02-40.25-40.25-40.25H2850.32c-22.23,0-40.25,18.02-40.25,40.25v0c0,22.23,18.02,40.25,40.25,40.25h390.43
	c22.23,0,40.25,18.02,40.25,40.25v0c0,22.23-18.02,40.25-40.25,40.25h-148.12c-22.23,0-40.25,18.02-40.25,40.25v0
	c0,22.23,18.02,40.25,40.25,40.25h278.53c22.23,0,40.25,18.02,40.25,40.25v0c0,22.23-18.02,40.25-40.25,40.25h-367.89
	c-22.23,0-40.25,18.02-40.25,40.25v0c0,22.23,18.02,40.25,40.25,40.25h185.96c22.23,0,40.25,18.02,40.25,40.25v0
	c0,22.23-18.02,40.25-40.25,40.25h-277.91c-22.23,0-40.25,18.02-40.25,40.25v0c0,22.23,18.02,40.25,40.25,40.25h390.43
	c22.23,0,40.25,18.02,40.25,40.25v0c0,22.23-18.02,40.25-40.25,40.25h-148.12c-22.23,0-40.25,18.02-40.25,40.25v0
	c0,22.23,18.02,40.25,40.25,40.25h278.53c22.23,0,40.25,18.02,40.25,40.25v0c0,22.23-18.02,40.25-40.25,40.25h-367.89
	c-22.23,0-40.25,18.02-40.25,40.25v0c0,22.23,18.02,40.25,40.25,40.25h185.96c22.23,0,40.25,18.02,40.25,40.25v0
	c0,22.23-18.02,40.25-40.25,40.25h-392.96c-22.23,0-40.25,18.02-40.25,40.25v0c0,22.23,18.02,40.25,40.25,40.25h185.96
	c22.23,0,40.25,18.02,40.25,40.25v0c0,22.23-18.02,40.25-40.25,40.25h-277.91c-22.23,0-40.25,18.02-40.25,40.25v0
	c0,22.23,18.02,40.25,40.25,40.25h390.43c22.23,0,40.25,18.02,40.25,40.25v0c0,22.23-18.02,40.25-40.25,40.25h-148.12
	c-22.23,0-40.25,18.02-40.25,40.25v0c0,22.23,18.02,40.25,40.25,40.25h278.53c22.23,0,40.25,18.02,40.25,40.25v0
	c0,22.23-18.02,40.25-40.25,40.25h-367.89c-22.23,0-40.25,18.02-40.25,40.25v0c0,22.23,18.02,40.25,40.25,40.25h185.96
	c22.23,0,40.25,18.02,40.25,40.25v0c0,22.23-18.02,40.25-40.25,40.25h-240.91c-22.23,0-40.25,18.02-40.25,40.25v0
	c0,22.23,18.02,40.25,40.25,40.25h390.43c22.23,0,40.25,18.02,40.25,40.25v0c0,22.23-18.02,40.25-40.25,40.25h-148.12
	c-22.23,0-40.25,18.02-40.25,40.25v0c0,22.23,18.02,40.25,40.25,40.25h278.53c22.23,0,40.25,18.02,40.25,40.25v0
	c0,22.23-18.02,40.25-40.25,40.25h-367.89c-22.23,0-40.25,18.02-40.25,40.25v0c0,22.23,18.02,40.25,40.25,40.25h185.96
	c22.23,0,40.25,18.02,40.25,40.25l0,0c0,22.23-18.02,40.25-40.25,40.25h-392.96c-22.23,0-40.25,18.02-40.25,40.25l0,0
	c0,22.23,18.02,40.25,40.25,40.25h185.96c22.23,0,40.25,18.02,40.25,40.25l0,0c0,22.23-18.02,40.25-40.25,40.25h-277.91
	c-22.23,0-40.25,18.02-40.25,40.25l0,0c0,22.23,18.02,40.25,40.25,40.25h390.43c22.23,0,40.25,18.02,40.25,40.25l0,0
	c0,22.23-18.02,40.25-40.25,40.25h-148.12c-22.23,0-40.25,18.02-40.25,40.25l0,0c0,22.23,18.02,40.25,40.25,40.25h278.53
	c22.23,0,40.25,18.02,40.25,40.25l0,0c0,22.23-18.02,40.25-40.25,40.25h-367.89c-22.23,0-40.25,18.02-40.25,40.25l0,0
	c0,22.23,18.02,40.25,40.25,40.25h185.96c22.23,0,40.25,18.02,40.25,40.25l0,0c0,22.23-18.02,40.25-40.25,40.25h427.46h194h427.46
	v-80.5h523.25c22.23,0,40.25-18.02,40.25-40.25l0,0c0-22.23-18.02-40.25-40.25-40.25h-341.32v-80.5h430.67
	c22.23,0,40.25-18.02,40.25-40.25l0,0c0-22.23-18.02-40.25-40.25-40.25h-561.08v-80.5h318.78c22.23,0,40.25-18.02,40.25-40.25l0,0
	c0-22.23-18.02-40.25-40.25-40.25h-431.3v-80.5h523.25c22.23,0,40.25-18.02,40.25-40.25l0,0c0-22.23-18.02-40.25-40.25-40.25
	h-316.25v-80.5h523.25c22.23,0,40.25-18.02,40.25-40.25v0c0-22.23-18.02-40.25-40.25-40.25h-341.32v-80.5h430.67
	c22.23,0,40.25-18.02,40.25-40.25v0c0-22.23-18.02-40.25-40.25-40.25h-561.08v-80.5h318.78c22.23,0,40.25-18.02,40.25-40.25v0
	c0-22.23-18.02-40.25-40.25-40.25h-468.3v-80.5h523.25c22.23,0,40.25-18.02,40.25-40.25v0c0-22.23-18.02-40.25-40.25-40.25h-341.32
	v-80.5h430.67c22.23,0,40.25-18.02,40.25-40.25v0c0-22.23-18.02-40.25-40.25-40.25h-561.08v-80.5h318.78
	c22.23,0,40.25-18.02,40.25-40.25v0c0-22.23-18.02-40.25-40.25-40.25h-431.3v-80.5h523.25c22.23,0,40.25-18.02,40.25-40.25v0
	c0-22.23-18.02-40.25-40.25-40.25h-316.25v-80.5h523.25c22.23,0,40.25-18.02,40.25-40.25v0c0-22.23-18.02-40.25-40.25-40.25h-341.32
	v-80.5h430.67c22.23,0,40.25-18.02,40.25-40.25v0C4952-98.98,4933.98-117,4911.75-117z"/>
<circle id="Base" class="st1" cx="758.5" cy="726.5" r="726.5"/>
<path class="st2" d="M339.24,1291.44l119.43,87.62c17.92,13.15,43.11,9.28,56.26-8.64c13.15-17.92,9.28-43.11-8.64-56.26
	l-314.8-230.94c-17.92-13.15-21.79-38.34-8.64-56.26c13.15-17.92,38.34-21.79,56.26-8.64l224.07,164.39
	c17.92,13.15,43.11,9.28,56.26-8.64c13.15-17.92,9.28-43.11-8.64-56.26l-149.93-110c-17.92-13.15-21.79-38.34-8.64-56.26
	c13.15-17.92,38.34-21.79,56.26-8.64l316.84,232.44c17.92,13.15,43.11,9.28,56.26-8.64c13.15-17.92,9.28-43.11-8.64-56.26
	l-149.93-110c-17.92-13.15-21.79-38.34-8.64-56.26l0,0c13.15-17.92,38.34-21.79,56.26-8.64l296.62,217.61
	c17.92,13.15,43.11,9.28,56.26-8.64l0,0c13.15-17.92,9.28-43.11-8.64-56.26L790.28,923.45c-17.92-13.15-21.79-38.34-8.64-56.26v0
	c13.15-17.92,38.34-21.79,56.26-8.64l119.43,87.62c17.92,13.15,43.11,9.28,56.26-8.64l0,0c13.15-17.92,9.28-43.11-8.64-56.26
	l-314.8-230.94c-17.92-13.15-21.79-38.34-8.64-56.26h0c13.15-17.92,38.34-21.79,56.26-8.64l194.24,142.5
	c17.92,13.15,43.11,9.28,56.26-8.64l0,0c13.15-17.92,9.28-43.11-8.64-56.26L829.69,553c-17.92-13.15-21.79-38.34-8.64-56.26l0,0
	c13.15-17.92,38.34-21.79,56.26-8.64l296.62,217.61c17.92,13.15,43.11,9.28,56.26-8.64v0c13.15-17.92,9.28-43.11-8.64-56.26
	L996.97,476.05c-17.92-13.15-21.79-38.34-8.64-56.26l0,0c13.15-17.92,38.34-21.79,56.26-8.64l119.43,87.62
	c17.92,13.15,43.11,9.28,56.26-8.64v0c13.15-17.92,9.28-43.11-8.64-56.26l-314.8-230.94c-17.92-13.15-21.79-38.34-8.64-56.26l0,0
	c13.15-17.92,38.34-21.79,56.26-8.64l224.07,164.39c17.92,13.15,43.11,9.28,56.26-8.64l0,0c13.15-17.92,9.28-43.11-8.64-56.26
	l-149.93-110c-17.92-13.15-21.79-38.34-8.64-56.26l0,0c1.33-1.81,2.78-3.47,4.34-4.99C754.82-75.26,380.5,13.55,172.73,296.76
	C-56.73,609.53,0.96,1044.88,297.39,1287.92C310.46,1281.37,326.65,1282.19,339.24,1291.44z"/>
</svg>
